<?xml version="1.0" standalone="no"?>
<!DOCTYPE svg PUBLIC "-//W3C//DTD SVG 20010904//EN"
 "http://www.w3.org/TR/2001/REC-SVG-20010904/DTD/svg10.dtd">
<svg version="1.0" xmlns="http://www.w3.org/2000/svg"
 width="256.000000pt" height="256.000000pt" viewBox="0 0 256.000000 256.000000"
 preserveAspectRatio="xMidYMid meet">
<metadata>
Created by potrace 1.11, written by Peter Selinger 2001-2013
</metadata>
<g transform="translate(0.000000,256.000000) scale(0.100000,-0.100000)"
fill="#000000" stroke="none">
<path d="M1839 2226 c-97 -25 -183 -96 -221 -183 -24 -54 -28 -74 -29 -139
l-1 -51 -127 -61 c-69 -34 -209 -101 -311 -150 -102 -49 -204 -99 -226 -110
l-41 -21 -29 26 c-90 79 -237 100 -346 51 -70 -32 -142 -103 -170 -166 -32
-71 -36 -182 -8 -254 77 -206 334 -283 506 -152 l47 36 51 -24 c28 -14 187
-92 354 -173 l302 -148 0 -58 c0 -124 70 -233 186 -290 123 -61 268 -39 372
56 92 82 127 238 82 357 -77 206 -335 282 -507 151 -24 -18 -45 -33 -48 -33
-2 0 -143 68 -312 151 -169 83 -327 160 -350 171 -40 19 -41 21 -41 70 l-1 50
267 130 c147 71 305 148 350 171 57 27 88 38 96 31 97 -73 185 -102 278 -90
107 14 205 85 260 188 19 36 23 58 23 138 0 79 -4 103 -23 141 -72 147 -232
224 -383 185z"/>
</g>
</svg>
